<svg xmlns="http://www.w3.org/2000/svg" xmlns:xlink="http://www.w3.org/1999/xlink" width="204" zoomAndPan="magnify" viewBox="0 0 153 234.749995" height="313" preserveAspectRatio="xMidYMid meet" version="1.0"><defs><clipPath id="1ec56ad26d"><path d="M 12.820312 0 L 131.945312 0 L 131.945312 183.554688 L 12.820312 183.554688 Z M 12.820312 0 " clip-rule="nonzero"/></clipPath><clipPath id="3f1dbf52be"><path d="M 68 85.195312 L 152 85.195312 L 152 234.285156 L 68 234.285156 Z M 68 85.195312 " clip-rule="nonzero"/></clipPath><clipPath id="1b0c7b41bf"><path d="M 0.0820312 94 L 64 94 L 64 208 L 0.0820312 208 Z M 0.0820312 94 " clip-rule="nonzero"/></clipPath><clipPath id="a8e3992df4"><path d="M 15.519531 94.265625 C 14.09375 101.4375 17.675781 108.828125 22.835938 113.988281 C 27.996094 119.148438 34.601562 122.585938 40.90625 126.273438 C 47.210938 129.960938 53.503906 134.15625 57.476562 140.296875 C 60.925781 145.636719 62.324219 152.03125 63.050781 158.351562 C 63.929688 165.996094 63.808594 174.042969 61.371094 181.253906 C 59.601562 176.914062 57.296875 172.75 54.664062 168.867188 C 49.503906 161.222656 43.152344 154.46875 36.832031 147.761719 C 29.441406 139.925781 22.0625 132.085938 14.671875 124.25 C 22.316406 138.585938 34.167969 150.128906 44.195312 162.933594 C 54.21875 175.722656 62.753906 190.996094 61.816406 207.222656 C 61.074219 198.921875 54.335938 192.335938 47.035156 188.320312 C 39.730469 184.304688 31.539062 182.074219 24.324219 177.878906 C 10.703125 169.90625 1.539062 154.796875 0.828125 139.046875 C 0.113281 123.121094 7.386719 107.980469 15.519531 94.265625 Z M 15.519531 94.265625 " clip-rule="nonzero"/></clipPath><linearGradient x1="-1204.20996" gradientTransform="matrix(-0.148723, 0, 0, 0.148723, -146.929379, 85.195357)" y1="61.000019" x2="-1204.20996" gradientUnits="userSpaceOnUse" y2="820.500098" id="5ec09d899d"><stop stop-opacity="1" stop-color="rgb(48.036194%, 71.795654%, 90.196228%)" offset="0"/><stop stop-opacity="1" stop-color="rgb(48.095703%, 71.749878%, 90.068054%)" offset="0.125"/><stop stop-opacity="1" stop-color="rgb(48.216248%, 71.658325%, 89.810181%)" offset="0.25"/><stop stop-opacity="1" stop-color="rgb(48.336792%, 71.568298%, 89.552307%)" offset="0.375"/><stop stop-opacity="1" stop-color="rgb(48.457336%, 71.478271%, 89.294434%)" offset="0.5"/><stop stop-opacity="1" stop-color="rgb(48.576355%, 71.386719%, 89.038086%)" offset="0.625"/><stop stop-opacity="1" stop-color="rgb(48.696899%, 71.296692%, 88.780212%)" offset="0.75"/><stop stop-opacity="1" stop-color="rgb(48.817444%, 71.206665%, 88.522339%)" offset="0.875"/><stop stop-opacity="1" stop-color="rgb(48.937988%, 71.115112%, 88.265991%)" offset="1"/></linearGradient></defs><g clip-path="url(#1ec56ad26d)"><path fill="#000000" d="M 129.824219 135.304688 C 129.15625 135.179688 128.507812 135.59375 128.363281 136.257812 C 126.714844 143.773438 123.558594 150.6875 119.277344 156.722656 C 118.660156 156.453125 117.945312 156.476562 117.335938 156.863281 C 103.5625 165.628906 86.234375 170.050781 68.527344 169.3125 C 53.628906 168.683594 39.496094 164.363281 27.660156 156.804688 C 27.003906 156.386719 26.222656 156.375 25.574219 156.71875 C 19.222656 147.726562 15.398438 136.863281 15.160156 125.183594 C 15.152344 124.796875 15.148438 124.410156 15.148438 124.023438 C 15.148438 123.089844 15.175781 122.160156 15.21875 121.234375 C 15.234375 120.933594 15.261719 120.636719 15.28125 120.332031 C 15.757812 112.941406 17.664062 105.941406 20.707031 99.574219 C 20.890625 99.195312 21.144531 98.859375 21.332031 98.488281 C 22.679688 95.832031 24.1875 93.265625 25.917969 90.867188 C 26.492188 90.070312 27.183594 89.367188 27.792969 88.597656 C 29.285156 86.738281 30.828125 84.917969 32.535156 83.253906 C 33.390625 82.425781 34.335938 81.695312 35.242188 80.921875 C 36.890625 79.507812 38.578125 78.140625 40.378906 76.921875 C 41.46875 76.179688 42.625 75.535156 43.769531 74.871094 C 52.21875 69.964844 61.941406 67 72.414062 67 C 73.105469 67 73.667969 66.441406 73.667969 65.753906 C 73.667969 65.066406 73.105469 64.503906 72.414062 64.503906 C 65.691406 64.503906 59.234375 65.632812 53.195312 67.679688 C 55.0625 65.070312 56.109375 61.960938 56.105469 58.699219 L 57.269531 40.660156 C 57.429688 40.730469 57.597656 40.773438 57.785156 40.773438 L 63.636719 40.773438 C 64.328125 40.773438 64.886719 40.21875 64.886719 39.527344 C 64.886719 38.835938 64.328125 38.28125 63.636719 38.28125 L 57.785156 38.28125 C 57.65625 38.28125 57.539062 38.316406 57.421875 38.351562 L 58.203125 26.207031 L 72.414062 26.207031 C 73.105469 26.207031 73.667969 25.648438 73.667969 24.957031 C 73.667969 24.269531 73.105469 23.710938 72.414062 23.710938 L 58.367188 23.710938 L 58.957031 14.546875 L 85.863281 14.546875 L 88.714844 58.613281 C 88.714844 64.652344 92.214844 70.140625 97.847656 72.921875 C 105.269531 76.59375 111.667969 81.734375 116.738281 87.898438 C 116.601562 87.847656 116.453125 87.8125 116.300781 87.8125 L 89.449219 87.8125 L 83.230469 94.003906 C 82.742188 94.492188 82.742188 95.277344 83.230469 95.765625 C 83.472656 96.007812 83.792969 96.128906 84.117188 96.128906 C 84.4375 96.128906 84.757812 96.011719 85.003906 95.765625 L 90.492188 90.304688 L 116.304688 90.304688 C 116.996094 90.304688 117.558594 89.746094 117.558594 89.054688 C 117.558594 88.988281 117.53125 88.933594 117.523438 88.871094 C 123.800781 96.851562 127.925781 106.460938 129.234375 116.851562 C 129.316406 117.480469 129.851562 117.941406 130.476562 117.941406 C 130.523438 117.941406 130.566406 117.9375 130.613281 117.933594 C 130.621094 117.933594 130.625 117.933594 130.632812 117.933594 C 131.320312 117.847656 131.804688 117.222656 131.722656 116.542969 C 129.726562 100.726562 121.5 86.617188 109.097656 77.039062 C 108.71875 76.746094 108.335938 76.453125 107.945312 76.167969 C 105.148438 74.109375 102.152344 72.265625 98.972656 70.691406 C 94.195312 68.332031 91.230469 63.703125 91.226562 58.535156 L 88.378906 14.421875 C 90.011719 14.011719 91.230469 12.554688 91.230469 10.804688 L 91.230469 4.136719 C 91.230469 2.074219 89.546875 0.394531 87.472656 0.394531 L 57.371094 0.394531 C 55.300781 0.394531 53.613281 2.074219 53.613281 4.136719 L 53.613281 10.804688 C 53.613281 12.554688 54.832031 14.015625 56.464844 14.421875 L 53.613281 58.613281 C 53.613281 63.703125 50.65625 68.324219 45.894531 70.675781 C 44.730469 71.25 43.695312 72.03125 42.574219 72.679688 C 41.480469 73.3125 40.394531 73.933594 39.34375 74.632812 C 37.257812 76.023438 35.3125 77.566406 33.417969 79.199219 C 32.570312 79.933594 31.691406 80.609375 30.882812 81.390625 C 28.816406 83.386719 26.957031 85.558594 25.195312 87.828125 C 24.742188 88.410156 24.21875 88.929688 23.785156 89.53125 C 21.65625 92.496094 19.75 95.617188 18.195312 98.9375 C 18.171875 98.988281 18.175781 99.035156 18.160156 99.085938 C 15.375 105.074219 13.558594 111.597656 12.917969 118.457031 C 12.914062 118.476562 12.902344 118.492188 12.902344 118.511719 C 12.855469 119.042969 12.828125 119.574219 12.792969 120.109375 C 12.773438 120.441406 12.742188 120.769531 12.730469 121.105469 C 12.683594 122.070312 12.652344 123.042969 12.652344 124.011719 C 12.652344 124.414062 12.65625 124.816406 12.664062 125.21875 C 12.921875 138.144531 17.507812 150.03125 24.875 159.726562 C 24.890625 159.746094 24.863281 159.777344 24.878906 159.800781 C 24.945312 159.890625 25.03125 159.957031 25.101562 160.042969 C 27.140625 162.6875 29.375 165.15625 31.824219 167.429688 C 31.925781 167.53125 32.019531 167.644531 32.128906 167.742188 C 34.632812 170.035156 37.316406 172.128906 40.183594 173.980469 C 40.25 174.019531 40.308594 174.078125 40.378906 174.121094 C 43.246094 175.949219 46.257812 177.558594 49.429688 178.886719 C 49.476562 178.90625 49.519531 178.933594 49.5625 178.953125 C 52.742188 180.273438 56.042969 181.355469 59.464844 182.109375 C 59.53125 182.125 59.589844 182.136719 59.65625 182.152344 C 60.558594 182.351562 61.472656 182.523438 62.386719 182.679688 C 62.558594 182.710938 62.734375 182.738281 62.90625 182.769531 C 63.738281 182.90625 64.582031 183.011719 65.421875 183.113281 C 65.640625 183.140625 65.859375 183.167969 66.074219 183.191406 C 67.109375 183.304688 68.140625 183.390625 69.183594 183.441406 C 69.1875 183.441406 69.191406 183.441406 69.195312 183.441406 C 70.253906 183.496094 71.308594 183.527344 72.359375 183.527344 C 72.359375 183.527344 72.363281 183.527344 72.363281 183.527344 C 72.382812 183.527344 72.398438 183.527344 72.417969 183.527344 C 73.480469 183.527344 74.542969 183.488281 75.597656 183.429688 C 75.835938 183.417969 76.074219 183.398438 76.3125 183.386719 C 77.144531 183.332031 77.976562 183.257812 78.800781 183.167969 C 79.085938 183.140625 79.371094 183.113281 79.652344 183.078125 C 80.535156 182.96875 81.410156 182.839844 82.28125 182.695312 C 82.78125 182.609375 83.273438 182.511719 83.765625 182.417969 C 84.316406 182.308594 84.871094 182.203125 85.417969 182.078125 C 86.070312 181.933594 86.710938 181.777344 87.355469 181.605469 C 87.546875 181.5625 87.734375 181.507812 87.921875 181.457031 C 100.597656 178.058594 111.980469 170.585938 120.113281 159.871094 C 120.167969 159.800781 120.1875 159.71875 120.234375 159.644531 C 125.265625 153 128.949219 145.25 130.808594 136.777344 C 130.953125 136.105469 130.527344 135.441406 129.851562 135.296875 C 129.84375 135.304688 129.835938 135.308594 129.824219 135.304688 Z M 78.839844 180.671875 C 78.097656 180.75 77.355469 180.828125 76.609375 180.882812 C 76.304688 180.90625 76 180.925781 75.695312 180.941406 C 74.855469 180.988281 74.007812 181.023438 73.160156 181.035156 C 72.980469 181.039062 72.800781 181.046875 72.621094 181.046875 C 71.527344 181.050781 70.429688 181.027344 69.328125 180.96875 C 68.355469 180.921875 67.386719 180.839844 66.421875 180.738281 C 66.273438 180.722656 66.125 180.703125 65.976562 180.683594 C 65.144531 180.585938 64.304688 180.484375 63.480469 180.351562 C 63.40625 180.339844 63.328125 180.324219 63.253906 180.3125 C 59.703125 179.742188 56.289062 178.785156 52.988281 177.589844 C 51.171875 176.925781 49.46875 176.003906 47.726562 175.15625 C 46.34375 174.492188 44.921875 173.910156 43.609375 173.136719 C 41.5625 171.929688 39.648438 170.488281 37.757812 169.027344 C 36.910156 168.382812 36.027344 167.796875 35.222656 167.105469 C 33.261719 165.414062 31.460938 163.515625 29.722656 161.542969 C 29.34375 161.117188 28.949219 160.714844 28.585938 160.277344 C 40.3125 167.214844 54.019531 171.199219 68.425781 171.800781 C 85.734375 172.519531 102.714844 168.441406 116.550781 160.277344 C 116.59375 160.25 116.640625 160.226562 116.6875 160.199219 C 108.503906 170.117188 97.3125 176.871094 84.984375 179.632812 C 84.679688 179.703125 84.375 179.769531 84.066406 179.828125 C 83.503906 179.945312 82.945312 180.066406 82.378906 180.164062 C 81.5 180.316406 80.617188 180.457031 79.730469 180.570312 C 79.429688 180.613281 79.132812 180.636719 78.839844 180.671875 Z M 56.113281 4.136719 C 56.113281 3.449219 56.675781 2.886719 57.367188 2.886719 L 87.46875 2.886719 C 88.15625 2.886719 88.722656 3.449219 88.722656 4.136719 L 88.722656 10.804688 C 88.722656 11.492188 88.15625 12.050781 87.46875 12.050781 L 57.367188 12.050781 C 56.675781 12.050781 56.113281 11.496094 56.113281 10.804688 Z M 56.113281 4.136719 " fill-opacity="1" fill-rule="nonzero"/></g><path fill="#000000" d="M 94.667969 149.292969 C 95.359375 149.292969 95.921875 148.738281 95.921875 148.046875 L 95.921875 132.765625 L 101.433594 130.0625 L 106.953125 127.363281 L 118.679688 133.113281 C 119.300781 133.414062 120.050781 133.164062 120.355469 132.542969 C 120.664062 131.925781 120.40625 131.179688 119.785156 130.875 L 108.199219 125.195312 L 108.199219 109.140625 L 94.664062 102.507812 L 82.382812 108.527344 L 71.355469 103.117188 L 71.355469 90.753906 C 71.355469 90.0625 70.789062 89.503906 70.101562 89.503906 C 69.410156 89.503906 68.847656 90.0625 68.847656 90.753906 L 68.847656 103.117188 L 63.335938 105.820312 L 57.816406 108.523438 L 52.304688 105.820312 L 46.789062 103.117188 L 46.789062 88.613281 L 58.375 82.9375 C 58.992188 82.628906 59.25 81.882812 58.945312 81.265625 C 58.640625 80.648438 57.886719 80.394531 57.265625 80.699219 L 44.285156 87.0625 L 44.285156 103.117188 L 32.003906 109.140625 L 32.003906 126.75 L 44.285156 132.769531 L 44.285156 148.824219 L 57.820312 155.464844 L 71.359375 148.824219 L 71.359375 132.769531 L 82.386719 127.363281 L 93.417969 132.769531 L 93.417969 148.050781 C 93.417969 148.734375 93.980469 149.292969 94.667969 149.292969 Z M 68.851562 132.761719 L 68.851562 147.265625 L 57.820312 152.675781 L 46.792969 147.265625 L 46.792969 132.761719 L 52.308594 130.058594 L 57.820312 127.359375 L 63.339844 130.058594 Z M 34.511719 110.6875 L 45.539062 105.277344 L 51.054688 107.980469 L 56.574219 110.6875 L 56.574219 125.191406 L 51.054688 127.894531 L 45.542969 130.597656 L 34.515625 125.1875 L 34.515625 110.6875 Z M 64.585938 127.894531 L 59.070312 125.191406 L 59.070312 110.6875 L 64.585938 107.980469 L 70.101562 105.277344 L 81.128906 110.6875 L 81.128906 125.191406 L 70.101562 130.601562 Z M 83.640625 110.6875 L 94.667969 105.277344 L 105.699219 110.6875 L 105.699219 125.191406 L 100.1875 127.894531 L 94.667969 130.597656 L 83.640625 125.1875 Z M 83.640625 110.6875 " fill-opacity="1" fill-rule="nonzero"/><path fill="#000000" d="M 57.789062 52.839844 C 57.097656 52.839844 56.535156 53.398438 56.535156 54.089844 C 56.535156 54.78125 57.09375 55.335938 57.789062 55.335938 L 63.640625 55.335938 C 64.332031 55.335938 64.890625 54.78125 64.890625 54.089844 C 64.890625 53.398438 64.332031 52.839844 63.640625 52.839844 Z M 57.789062 52.839844 " fill-opacity="1" fill-rule="nonzero"/><path fill="#000000" d="M 114.191406 77.402344 C 114.191406 76.707031 113.628906 76.15625 112.925781 76.15625 C 112.238281 76.15625 111.675781 76.707031 111.675781 77.402344 C 111.675781 78.089844 112.238281 78.652344 112.925781 78.652344 C 113.628906 78.652344 114.191406 78.089844 114.191406 77.402344 Z M 114.191406 77.402344 " fill-opacity="1" fill-rule="nonzero"/><path fill="#000000" d="M 92.902344 76.15625 C 92.203125 76.15625 91.652344 76.707031 91.652344 77.402344 C 91.652344 78.089844 92.203125 78.652344 92.902344 78.652344 C 93.59375 78.652344 94.15625 78.089844 94.15625 77.402344 C 94.15625 76.707031 93.59375 76.15625 92.902344 76.15625 Z M 92.902344 76.15625 " fill-opacity="1" fill-rule="nonzero"/><path fill="#000000" d="M 102.921875 76.15625 C 102.222656 76.15625 101.671875 76.707031 101.671875 77.402344 C 101.671875 78.089844 102.222656 78.652344 102.921875 78.652344 C 103.613281 78.652344 104.164062 78.089844 104.164062 77.402344 C 104.164062 76.707031 103.613281 76.15625 102.921875 76.15625 Z M 102.921875 76.15625 " fill-opacity="1" fill-rule="nonzero"/><path fill="#000000" d="M 97.914062 76.15625 C 97.214844 76.15625 96.652344 76.707031 96.652344 77.402344 C 96.652344 78.089844 97.214844 78.652344 97.914062 78.652344 C 98.601562 78.652344 99.167969 78.089844 99.167969 77.402344 C 99.167969 76.707031 98.601562 76.15625 97.914062 76.15625 Z M 97.914062 76.15625 " fill-opacity="1" fill-rule="nonzero"/><g clip-path="url(#3f1dbf52be)"><path fill="#0064a6" d="M 131.910156 85.195312 C 133.800781 94.652344 129.070312 104.410156 122.257812 111.222656 C 115.445312 118.046875 106.730469 122.570312 98.417969 127.433594 C 90.089844 132.296875 81.777344 137.84375 76.554688 145.949219 C 72.003906 152.996094 70.144531 161.445312 69.195312 169.773438 C 68.003906 179.886719 68.167969 190.492188 71.378906 200.007812 C 73.714844 194.269531 76.765625 188.78125 80.230469 183.648438 C 87.039062 173.550781 95.429688 164.644531 103.773438 155.777344 C 113.527344 145.429688 123.269531 135.089844 133.027344 124.742188 C 122.925781 143.660156 107.28125 158.917969 94.058594 175.796875 C 80.839844 192.691406 69.566406 212.859375 70.800781 234.273438 C 71.78125 223.3125 80.675781 214.613281 90.328125 209.320312 C 99.980469 204.023438 110.792969 201.066406 120.296875 195.53125 C 138.277344 185.0625 150.367188 165.105469 151.304688 144.3125 C 152.253906 123.285156 142.664062 103.28125 131.910156 85.195312 Z M 131.910156 85.195312 " fill-opacity="1" fill-rule="nonzero"/></g><g clip-path="url(#1b0c7b41bf)"><g clip-path="url(#a8e3992df4)"><path fill="url(#5ec09d899d)" d="M 63.929688 94.265625 L 63.929688 207.222656 L 0.113281 207.222656 L 0.113281 94.265625 Z M 63.929688 94.265625 " fill-rule="nonzero"/></g></g></svg>